<svg width="1281" height="658" viewBox="0 0 1281 658" fill="none" xmlns="http://www.w3.org/2000/svg">
<path d="M12.4423 656.665C12.4423 656.665 278.396 356.495 323.499 358.05C368.603 359.605 401.264 432.703 419.927 432.703C438.591 432.703 541.239 436.126 580.121 432.703C619.004 429.281 668.773 311.391 707.655 303.615C746.537 295.838 965.832 311.391 989.162 303.615C1012.49 295.838 1280 5 1280 5" stroke="#FFCD01" stroke-width="2" stroke-linecap="round"/>
<path d="M861.628 280.562C869.881 280.562 876.571 287.252 876.571 295.504C876.571 302.905 871.19 309.047 864.128 310.237V650.11H859.128V310.237C852.066 309.047 846.686 302.905 846.686 295.504C846.686 287.252 853.376 280.562 861.628 280.562Z" fill="white" stroke="url(#paint0_linear_582_3815)" stroke-width="5"/>
<defs>
<linearGradient id="paint0_linear_582_3815" x1="861.628" y1="283.062" x2="861.628" y2="650.109" gradientUnits="userSpaceOnUse">
<stop stop-color="#FFCD01"/>
<stop offset="1" stop-color="#FFCD01" stop-opacity="0"/>
</linearGradient>
</defs>
</svg>
