<svg width="124" height="59" viewBox="0 0 124 59" fill="none" xmlns="http://www.w3.org/2000/svg">
<path d="M72.9245 9.38821H90.8074L64.8215 54.4133C63.4382 56.81 60.8813 58.2864 58.1142 58.2864C52.1532 58.2864 48.4272 51.8341 51.4069 46.6712L72.9245 9.38821Z" fill="white"/>
<path d="M37.0731 55.186C34.7105 59.2918 28.7874 59.2948 26.4204 55.1915L0 9.38821H36.2408L23.0839 32.0876C21.5191 34.7873 23.467 38.1681 26.5875 38.1681C28.0319 38.1681 29.3668 37.3988 30.0912 36.1491L45.6022 9.38821H63.4281L37.0731 55.186Z" fill="white"/>
<path fill-rule="evenodd" clip-rule="evenodd" d="M103.627 22.5904C102.854 22.5904 102.226 21.9631 102.226 21.1893V13.1087H93.7312C92.9574 13.1087 92.3301 12.4814 92.3301 11.7076V10.831C92.3301 10.0572 92.9574 9.42994 93.7312 9.42994H102.226H106.112V13.1087V21.1893C106.112 21.9631 105.485 22.5904 104.711 22.5904H103.627Z" fill="white"/>
<path fill-rule="evenodd" clip-rule="evenodd" d="M103.627 22.5904C102.854 22.5904 102.226 21.9631 102.226 21.1893V13.1087H93.7312C92.9574 13.1087 92.3301 12.4814 92.3301 11.7076V10.831C92.3301 10.0572 92.9574 9.42994 93.7312 9.42994H102.226H106.112V13.1087V21.1893C106.112 21.9631 105.485 22.5904 104.711 22.5904H103.627Z" fill="#FFCD01"/>
<path d="M106.112 1.40109C106.112 0.627291 105.485 0 104.711 0H103.627C102.854 0 102.226 0.627293 102.226 1.4011V9.42994H106.112V1.40109Z" fill="white"/>
<path d="M106.112 1.40109C106.112 0.627291 105.485 0 104.711 0H103.627C102.854 0 102.226 0.627293 102.226 1.4011V9.42994H106.112V1.40109Z" fill="#FFCD01"/>
<path d="M114.607 13.1087C115.381 13.1087 116.009 12.4814 116.009 11.7076V10.831C116.009 10.0572 115.381 9.42994 114.607 9.42994H106.112V13.1087H114.607Z" fill="white"/>
<path d="M114.607 13.1087C115.381 13.1087 116.009 12.4814 116.009 11.7076V10.831C116.009 10.0572 115.381 9.42994 114.607 9.42994H106.112V13.1087H114.607Z" fill="#FFCD01"/>
<path d="M120.206 14.1356C121.749 14.1356 123 12.8846 123 11.3413C123 9.7982 121.749 8.5472 120.206 8.5472C118.663 8.5472 117.412 9.7982 117.412 11.3413C117.412 12.8846 118.663 14.1356 120.206 14.1356Z" stroke="white" stroke-width="0.279418" stroke-miterlimit="10"/>
<path d="M119.586 12.1583V10.3198H120.208C120.351 10.3198 120.469 10.3449 120.562 10.393C120.653 10.4412 120.721 10.5094 120.766 10.5942C120.811 10.6788 120.833 10.7753 120.833 10.8833C120.833 10.9915 120.811 11.0878 120.766 11.1709C120.721 11.254 120.655 11.3205 120.562 11.3688C120.47 11.4169 120.354 11.4402 120.211 11.4402H119.709V11.2391H120.204C120.302 11.2391 120.382 11.2241 120.442 11.1958C120.502 11.1675 120.545 11.1261 120.573 11.0729C120.6 11.0196 120.615 10.9564 120.615 10.8833C120.615 10.8102 120.602 10.7454 120.573 10.6905C120.545 10.6357 120.502 10.5925 120.442 10.5626C120.382 10.5326 120.302 10.5177 120.203 10.5177H119.812V12.1583H119.589H119.586ZM120.452 11.3322L120.904 12.1583H120.645L120.199 11.3322H120.45H120.452Z" fill="white"/>
</svg>
